<svg xmlns="http://www.w3.org/2000/svg" width="122" height="42" viewBox="0 0 122 42">
    <g fill="#fff">
        <path d="M57.166 11.58c-2.337-1.307-4.945-1.96-7.88-1.96-2.934 0-5.597.653-7.933 1.96-2.337 1.305-4.13 3.156-5.434 5.496-1.304 2.34-1.956 5.007-1.956 8 0 2.94.652 5.606 1.956 7.946 1.304 2.34 3.097 4.136 5.434 5.497 2.336 1.306 5 1.959 7.933 1.959 2.935 0 5.597-.653 7.934-1.96 2.337-1.305 4.13-3.156 5.434-5.496 1.304-2.34 1.956-5.007 1.956-7.946 0-2.993-.652-5.66-1.956-8-1.358-2.395-3.152-4.19-5.488-5.497zm.706 18.83c-.815 1.578-2.01 2.83-3.478 3.7-1.467.871-3.206 1.361-5.053 1.361-1.848 0-3.587-.435-5.054-1.36-1.521-.871-2.663-2.123-3.532-3.701-.87-1.579-1.25-3.375-1.25-5.388 0-2.014.435-3.81 1.25-5.388.87-1.578 2.01-2.83 3.532-3.7 1.522-.872 3.206-1.361 5.054-1.361 1.847 0 3.586.435 5.053 1.36 1.522.87 2.663 2.123 3.478 3.7.815 1.58 1.25 3.375 1.25 5.389 0 2.013-.38 3.81-1.25 5.388zM82.597 14.573c1.413 0 2.663.217 3.75.707 1.086.49 2.119 1.197 3.042 2.177.598.653 1.305.98 2.174.98.49 0 .924-.11 1.25-.381.815-.545 1.195-1.252 1.195-2.068 0-.545-.163-1.035-.543-1.47-2.88-3.32-6.52-5.007-10.868-5.007-2.88 0-5.488.653-7.77 1.96-2.283 1.306-4.076 3.156-5.38 5.496-1.25 2.34-1.902 5.007-1.902 8 0 2.885.652 5.497 1.956 7.892 1.304 2.34 3.152 4.19 5.488 5.55 2.337 1.362 4.945 2.015 7.88 2.015 4.02 0 7.336-1.252 9.998-3.701.435-.436.652-.925.652-1.524 0-.762-.326-1.415-1.032-2.014-.435-.326-.924-.49-1.467-.49-.652 0-1.359.273-2.065.762-1.576 1.307-3.587 1.96-6.086 1.96-1.902 0-3.641-.436-5.108-1.36-1.522-.872-2.663-2.123-3.478-3.702-.815-1.578-1.25-3.374-1.25-5.388 0-3.156.87-5.66 2.663-7.564 1.739-1.85 4.02-2.83 6.9-2.83zM120.907 36.179l-10.76-13.225 10.216-9.089c.598-.49.87-1.088.87-1.905 0-.653-.218-1.252-.707-1.741-.489-.599-1.087-.871-1.902-.871-.652 0-1.25.218-1.739.707L103.41 22.137V2.763c0-.817-.272-1.47-.76-1.96-.49-.49-1.142-.762-1.957-.762-.815 0-1.467.273-1.956.762-.49.49-.76 1.143-.76 1.96v34.722c0 .816.27 1.47.76 1.959.489.49 1.141.762 1.956.762s1.467-.272 1.956-.762c.49-.49.761-1.143.761-1.96v-8.49l2.772-2.448 10.541 13.061c.544.653 1.196.98 2.011.98.652 0 1.196-.218 1.793-.653.652-.544.978-1.252.978-2.068 0-.653-.217-1.198-.597-1.687zM27.768.041c-.815 0-1.467.273-2.01.762-.544.545-.816 1.198-.816 2.068V22.41h-.054c0 .055 0 .11.054.164v1.47c0 3.7-.109 6.095-3.315 9.142-.38.327-.815.599-1.25.871-1.521.925-3.151 1.36-4.999 1.36-1.847 0-3.532-.435-4.999-1.36-1.522-.925-2.663-2.177-3.532-3.755-.87-1.578-1.304-3.374-1.304-5.334 0-1.959.434-3.755 1.304-5.333.87-1.578 2.065-2.83 3.532-3.7 1.358-.817 2.826-1.253 4.402-1.361l-1.957 1.959c-1.032 1.034-1.032 2.775 0 3.864 1.033 1.034 2.772 1.034 3.858 0l6.413-6.422c1.032-1.034 1.032-2.776 0-3.864l-6.467-6.422c-1.032-1.034-2.771-1.034-3.858 0-1.033 1.034-1.033 2.775 0 3.864l2.065 2.068h-.598c-2.663 0-5.054.653-7.227 2.014-2.174 1.36-3.858 3.156-5.108 5.55C.598 19.472 0 22.084 0 24.968c0 2.885.652 5.497 2.01 7.892 1.36 2.34 3.152 4.19 5.543 5.55 2.337 1.362 4.945 2.015 7.77 2.015 2.827 0 5.435-.653 7.717-2.014 2.337-1.36 4.13-3.211 5.489-5.551 1.358-2.34 2.01-4.953 2.01-7.892V2.871c0-.87-.272-1.523-.76-2.068-.49-.49-1.196-.762-2.011-.762z" transform="translate(0 .5)"/>
    </g>
</svg>
